<svg width="128" height="128" viewBox="0 0 128 128" fill="none" xmlns="http://www.w3.org/2000/svg">
  <defs>
    <linearGradient id="blue_grad" x1="0" y1="0" x2="128" y2="128" gradientUnits="userSpaceOnUse">
      <stop stop-color="#1877F2"/>
      <stop offset="1" stop-color="#1565D8"/>
    </linearGradient>
    <filter id="shadow" x="0" y="0" width="128" height="128" filterUnits="userSpaceOnUse" color-interpolation-filters="sRGB">
      <feFlood flood-opacity="0" result="BackgroundImageFix"/>
      <feColorMatrix in="SourceAlpha" type="matrix" values="0 0 0 0 0 0 0 0 0 0 0 0 0 0 0 0 0 0 127 0" result="hardAlpha"/>
      <feOffset dy="4"/>
      <feGaussianBlur stdDeviation="4"/>
      <feComposite in2="hardAlpha" operator="out"/>
      <feColorMatrix type="matrix" values="0 0 0 0 0 0 0 0 0 0 0 0 0 0 0 0 0 0 0.1 0"/>
      <feBlend mode="normal" in2="BackgroundImageFix" result="effect1_dropShadow"/>
      <feBlend mode="normal" in="SourceGraphic" in2="effect1_dropShadow" result="shape"/>
    </filter>
  </defs>
  <rect width="128" height="128" rx="28" fill="url(#blue_grad)"/>
  <g filter="url(#shadow)">
    <!-- Engrenagem Central -->
    <path d="M64 42C51.85 42 42 51.85 42 64C42 76.15 51.85 86 64 86C76.15 86 86 76.15 86 64C86 51.85 76.15 42 64 42ZM64 78C56.27 78 50 71.73 50 64C50 56.27 56.27 50 64 50C71.73 50 78 56.27 78 64C78 71.73 71.73 78 64 78Z" fill="white" fill-opacity="0.9"/>
    <path d="M68 38H60V44H68V38ZM68 84H60V90H68V84ZM90 68V60H84V68H90ZM44 68V60H38V68H44Z" fill="white" fill-opacity="0.9"/>
    <!-- Raio de Automação (Fast) -->
    <path d="M72 52L54 70H64L60 84L78 66H68L72 52Z" fill="#FFD700" stroke="#1565D8" stroke-width="2" stroke-linejoin="round"/>
  </g>
</svg>
